<svg xmlns="http://www.w3.org/2000/svg" viewBox="7 1 114 114" width="128" height="128"><title>Peko-Check</title><defs><linearGradient id="lk_minc_g" x1="0" y1="0" x2="0" y2="128" gradientUnits="userSpaceOnUse"><stop offset="0" stop-color="#ffb24a"/><stop offset="0.36" stop-color="#f08a2c"/><stop offset="0.5" stop-color="#7fd6f5"/><stop offset="1" stop-color="#3fb4e6"/></linearGradient></defs><g transform="rotate(-9 45 46)"><rect x="35" y="6" width="20" height="50" rx="10" fill="url(#lk_minc_g)"/><rect x="40.5" y="14" width="9" height="30" rx="4.5" fill="#0a2233"/></g><g transform="rotate(9 83 46)"><rect x="73" y="6" width="20" height="50" rx="10" fill="url(#lk_minc_g)"/><rect x="78.5" y="14" width="9" height="30" rx="4.5" fill="#0a2233"/></g>
<path d="M16 94 C16 60 36 40 64 40 C92 40 112 60 112 94 C112 102 106 106 98 106 L30 106 C22 106 16 102 16 94 Z" fill="#0a2233" stroke="url(#lk_minc_g)" stroke-width="6.5" stroke-linejoin="round"/><ellipse cx="47" cy="71" rx="5.4" ry="8.24" fill="#ffb24a"/><ellipse cx="81" cy="71" rx="5.4" ry="8.24" fill="#ffb24a"/><path d="M55.6 85.47 L61.9 91.25 L72.92 80.22" stroke-width="5.6" stroke-linecap="round" stroke-linejoin="round" fill="none" stroke="#e9fbff"/></svg>
